# xmcd
#
# Track frame offsets:
#	150
#	9089
#	24258
#	38046
#	59109
#	82386
#	99174
#	116737
#	121027
#	142729
#	161472
#	177147
#	182473
#	203868
#	220999
#	238502
#	261882
#
# Disc length: 3697 seconds
#
# Revision: 1
# Processed by: cddbd v1.5.1PL0 Copyright (c) Steve Scherf et al.
# Submitted via: audiograbber 1.83.01
#
DISCID=d90e6f11
DTITLE=Medina - Fullblod
DYEAR=2005
DGENRE=Hip-Hop
TTITLE0=Intro
TTITLE1=Efter Igår
TTITLE2=Magdansös
TTITLE3=Min Stad
TTITLE4=Vart Du Än E
TTITLE5=Eid Emchi (Fortsätt Gå)
TTITLE6=M-e-d-i-n-a
TTITLE7=Skit
TTITLE8=Ja E Så Full
TTITLE9=Chillnani
TTITLE10=Dunka Dunka
TTITLE11=Skit #2
TTITLE12=Vi Rör Oss
TTITLE13=Förbjuden Frukt
TTITLE14=El Lila
TTITLE15=Som Det Aldrig Fanns Nån Där
TTITLE16=Ey Du (Bonus)
EXTD=
EXTT0=
EXTT1=
EXTT2=
EXTT3=
EXTT4=
EXTT5=
EXTT6=
EXTT7=
EXTT8=
EXTT9=
EXTT10=
EXTT11=
EXTT12=
EXTT13=
EXTT14=
EXTT15=
EXTT16=
PLAYORDER=
